<svg width="182" height="182" viewBox="0 0 182 182" xmlns="http://www.w3.org/2000/svg"><title>78902041-5E9E-4E0E-9D89-6ADDEF4FFD6F</title><g fill="none" fill-rule="evenodd"><circle fill="#FFF" cx="91" cy="91" r="91"/><path d="M79.86 78.587c6.209 3.585 16.262 3.585 22.435 0 6.19-3.585 6.135-9.406-.074-12.992-6.21-3.585-16.263-3.585-22.436 0-6.172 3.586-6.135 9.389.074 12.992zm2.845-6.21c.48-.147.943-.313 1.405-.461.35-.111.554-.13.702-.056.092.056.148.13.222.259.314.591.831 1.109 1.478 1.59.111.092.222.166.351.24.351.203.74.35 1.22.462 1.201.258 2.273-.204 2.144-.943-.037-.259-.167-.48-.333-.72-.406-.61-.924-1.183-1.201-1.812-.444-1.035-.24-1.959 1.183-2.698 1.626-.831 3.419-.868 5.34-.37.777.222.777.222 1.387-.129.203-.11.406-.24.61-.351.461-.259.628-.259 1.09 0 .148.074.277.166.425.24.96.555.96.555.018 1.128-.683.388-.683.388-.11.85.443.35.776.72 1.053 1.127.148.222.055.388-.296.499-.536.166-1.072.351-1.608.517-.332.093-.536.111-.683.037a.946.946 0 0 1-.222-.24c-.351-.573-.887-1.053-1.608-1.478a4.867 4.867 0 0 0-.314-.167c-.24-.11-.462-.221-.758-.295-1.035-.24-1.94.148-1.811.794.055.333.24.629.462.924.37.518.758 1.035 1.035 1.571.868 1.737-1.017 3.438-4.029 3.604-1.09.055-2.125-.074-3.068-.388-.406-.13-.72-.111-1.053.092-.314.204-.665.388-.98.573-.295.166-.61.185-.905.019-.222-.111-.425-.24-.647-.352-.148-.092-.295-.166-.443-.258-.315-.185-.278-.37.018-.555.24-.148.48-.277.702-.425.536-.314.536-.332.093-.684-.555-.443-1.054-.905-1.368-1.422-.203-.407-.148-.5.5-.721zm21.604 7.356c1.719-.998 4.49-.998 6.21 0 1.718.998 1.737 2.606.018 3.604-1.7.998-4.49.998-6.21 0-1.718-.998-1.737-2.606-.018-3.604zM71.56 60.827c1.72-.997 4.491-.997 6.228 0 1.72.998 1.738 2.606.019 3.604-1.7.998-4.49.998-6.21 0-1.737-.998-1.755-2.606-.037-3.604zm-23.266 7.707l49.028 28.293c2.828 1.645 7.43 1.645 10.238 0l26.261-15.264c2.81-1.645 2.81-4.306-.018-5.933L84.775 47.318c-2.827-1.645-7.43-1.626-10.257 0l-26.26 15.284c-2.81 1.626-2.791 4.287.037 5.932zm10.644-6.006a8.297 8.297 0 0 0-.998-.48l15.69-9.112c.24.204.518.388.832.573 2.864 1.663 7.521 1.645 10.367 0 .333-.185.61-.388.85-.61l38.181 22.048c-.517.184-.98.388-1.423.646-2.864 1.664-2.846 4.343.037 6.007.444.258.924.462 1.442.646l-15.838 9.204a6.148 6.148 0 0 0-1.127-.832c-2.883-1.663-7.522-1.663-10.368 0-.222.13-.407.259-.591.407l-38.07-21.992c.37-.148.72-.314 1.035-.5 2.864-1.644 2.846-4.342-.019-6.005zm-11.92 11.66c1.239-.646 3.179-.554 4.38.149l51.228 29.568L130.33 87.81c1.202-.702 3.16-.702 4.362 0 1.22.702 1.22 1.83.018 2.532l-29.44 17.113c-1.44.831-3.788.831-5.23 0l-1.034-.592-.72-.425-51.376-29.642c-1.239-.74-1.22-1.922.11-2.606zM134.765 99.6l-29.44 17.112c-1.441.832-3.788.832-5.23 0l-1.035-.59-.739-.426-51.357-29.661c-1.257-.72-1.22-1.904.11-2.606 1.239-.647 3.18-.554 4.38.148l51.229 29.569 27.683-16.078c1.202-.703 3.16-.703 4.38 0 1.202.702 1.22 1.83.019 2.532zm-87.746-6.912c1.239-.647 3.179-.555 4.38.148l51.228 29.587 27.702-16.115c1.202-.702 3.16-.702 4.362 0 1.22.702 1.22 1.83.018 2.532l-29.44 17.113c-1.44.831-3.788.831-5.23 0l-1.034-.592-.72-.425-51.376-29.642c-1.239-.721-1.22-1.904.11-2.606zm87.746 25.41l-29.44 17.113c-1.441.832-3.788.832-5.23 0l-1.035-.59-.739-.426-51.357-29.661c-1.257-.72-1.22-1.904.11-2.606 1.239-.647 3.18-.554 4.38.148l51.229 29.569 27.702-16.097c1.201-.702 3.16-.702 4.38 0 1.183.72 1.201 1.848 0 2.55z" fill-rule="nonzero" fill="#009688"/></g></svg>