<svg width="182" height="182" viewBox="0 0 182 182" xmlns="http://www.w3.org/2000/svg"><title>9AB61F67-1C29-4C53-BA20-7810C39E44C3</title><g fill="none" fill-rule="evenodd"><circle fill="#FFF" cx="91" cy="91" r="91"/><g fill-rule="nonzero" fill="#009688"><path d="M110.5 76h-3a1.5 1.5 0 0 0 0 3h3a1.5 1.5 0 0 0 0-3zM110.5 82h-3a1.5 1.5 0 0 0 0 3h3a1.5 1.5 0 0 0 0-3zM110.5 70h-3a1.5 1.5 0 0 0 0 3h3a1.5 1.5 0 0 0 0-3zM110.5 118h-3a1.5 1.5 0 0 0 0 3h3a1.5 1.5 0 0 0 0-3zM77.5 70h-9a1.5 1.5 0 0 0-1.5 1.5v21a1.5 1.5 0 0 0 1.5 1.5h9a1.5 1.5 0 0 0 1.5-1.5v-21a1.5 1.5 0 0 0-1.5-1.5zM76 91h-6V73h6v18zM77.5 118h-9a1.5 1.5 0 0 0 0 3h9a1.5 1.5 0 0 0 0-3zM77.5 124h-9a1.5 1.5 0 0 0 0 3h9a1.5 1.5 0 0 0 0-3zM110.5 124h-3a1.5 1.5 0 0 0 0 3h3a1.5 1.5 0 0 0 0-3zM128.5 124h-6a1.5 1.5 0 0 0 0 3h6a1.5 1.5 0 0 0 0-3zM97 71.5a1.5 1.5 0 0 0-1.5-1.5h-6a1.5 1.5 0 0 0-1.5 1.5v21a1.5 1.5 0 0 0 1.5 1.5h6a1.5 1.5 0 0 0 1.5-1.5v-21zM94 91h-3V73h3v18zM128.5 118h-6a1.5 1.5 0 0 0 0 3h6a1.5 1.5 0 0 0 0-3zM95.5 124h-6a1.5 1.5 0 0 0 0 3h6a1.5 1.5 0 0 0 0-3zM122.5 100a1.5 1.5 0 0 0 1.5-1.5v-15a1.5 1.5 0 0 0-3 0v15a1.5 1.5 0 0 0 1.5 1.5zM130 83.5a1.5 1.5 0 0 0-3 0v15a1.5 1.5 0 0 0 3 0v-15z"/><path d="M131.5 58h-9a1.5 1.5 0 0 0 0 3h9c.827 0 1.5.673 1.5 1.5v69c0 .827-.673 1.5-1.5 1.5H118V70h9a1.5 1.5 0 0 0 0-3h-9V53.5c0-2.523-1.977-4.5-4.5-4.5h-9a4.506 4.506 0 0 0-4.5 4.5V133H85V55h10.5a1.5 1.5 0 0 0 0-3H85v-1.5c0-2.523-1.977-4.5-4.5-4.5h-15a4.506 4.506 0 0 0-4.5 4.5V64h-7.5a1.5 1.5 0 0 0 0 3H61v66H50.5c-.827 0-1.5-.673-1.5-1.5v-72c0-.827.673-1.5 1.5-1.5h6a1.5 1.5 0 0 0 0-3h-6a4.506 4.506 0 0 0-4.5 4.5v72c0 2.481 2.019 4.5 4.5 4.5h81c2.481 0 4.5-2.019 4.5-4.5v-69c0-2.48-2.019-4.5-4.5-4.5zM82 133H64V58h13.5a1.5 1.5 0 0 0 0-3H64v-4.5c0-.841.658-1.5 1.5-1.5h15c.855 0 1.5.645 1.5 1.5V133zm33 0h-12V61h7.5a1.5 1.5 0 0 0 0-3H103v-4.5c0-.841.658-1.5 1.5-1.5h9c.855 0 1.5.645 1.5 1.5V133z"/><path d="M56.5 118h-3a1.5 1.5 0 0 0 0 3h3a1.5 1.5 0 0 0 0-3zM56.5 124h-3a1.5 1.5 0 0 0 0 3h3a1.5 1.5 0 0 0 0-3zM95.5 118h-6a1.5 1.5 0 0 0 0 3h6a1.5 1.5 0 0 0 0-3zM56.5 82h-3a1.5 1.5 0 0 0 0 3h3a1.5 1.5 0 0 0 0-3zM56.5 94.429h-3a1.5 1.5 0 0 0 0 3h3a1.5 1.5 0 0 0 0-3z"/></g></g></svg>