<svg width="182" height="182" viewBox="0 0 182 182" xmlns="http://www.w3.org/2000/svg"><title>287261B7-E2A3-4473-86AF-B03F3C1747C5</title><g fill="none" fill-rule="evenodd"><circle fill="#009688" cx="91" cy="91" r="91"/><path d="M81.66 106.01l2.368 5.95a40.96 40.96 0 0 1-6.81 2.091l-1.303-6.274c1.87-.396 3.801-.99 5.746-1.768zm-18.985 7.684a27.813 27.813 0 0 0 7.315 1.077l.1-6.412a21.615 21.615 0 0 1-5.651-.826l-1.764 6.161zm50.24-11.192c1.838.365 3.633.997 5.333 1.88l2.93-5.7a26.441 26.441 0 0 0-7.03-2.468l-1.234 6.288zm-13.31-5.26l1.908 6.112c1.949-.614 3.876-1.002 5.731-1.152l-.51-6.388c-2.33.188-4.73.67-7.13 1.428zm-10.243 4.822c-.716.451-1.42.864-2.113 1.253l3.104 5.6c.779-.44 1.576-.903 2.373-1.404a44.377 44.377 0 0 1 3.222-1.83l-2.898-5.71a51.62 51.62 0 0 0-3.688 2.091zm17.634-39.962a16.03 16.03 0 0 1-1.733 7.277L91.044 97.373s-14.33-28.226-14.387-28.344a15.987 15.987 0 0 1-1.563-6.927c0-8.856 7.14-16.033 15.95-16.033 8.81 0 15.952 7.177 15.952 16.033zm-6.38 0c0-5.311-4.288-9.62-9.572-9.62-5.284 0-9.57 4.309-9.57 9.62 0 5.31 4.286 9.619 9.57 9.619 5.284 0 9.571-4.31 9.571-9.62zm22.33 16.032h-14.965l-3.26 6.414h13.627l6.886 20.767-2.2 2.443c2.343 2.128 3.558 4.089 3.565 4.096l.672-.407 5.964 17.991H48.848l6.393-19.257c.225.157.399.307.648.463l3.39-5.424a20.303 20.303 0 0 1-1.932-1.402l6.394-19.27h13.632a3611.97 3611.97 0 0 1-3.258-6.414H59.142L40 135.852h102.088l-19.141-57.718z" fill-rule="nonzero" fill="#FFF"/></g></svg>