<svg width="182" height="182" viewBox="0 0 182 182" xmlns="http://www.w3.org/2000/svg"><title>4C204139-D379-4F95-9866-E8774C05E63A</title><g fill="none" fill-rule="evenodd"><circle fill="#009688" cx="91" cy="91" r="91"/><g transform="translate(41 46)" fill-rule="nonzero" fill="#FFF"><ellipse cx="49.893" cy="10.07" rx="10.084" ry="10.07"/><path d="M75.065 34.633c-9.011-.925-17.748-10.663-19.947-12.012a10.581 10.581 0 0 0-4.47-1.847s-1.086-.225-2.207-.101c-1.073.119-2.704.174-5.093 1.952-.173.108-1.394 1.169-1.778 1.631-2.974 3.078-11.213 12.179-15.314 22.474a3.902 3.902 0 0 0 .798 4.123l-4.816 8.57-6.785-3.806a1.684 1.684 0 0 0-2.293.638L.318 78.915a1.68 1.68 0 0 0 .645 2.29l5.136 2.885a3.844 3.844 0 0 0 .615 4.583 3.86 3.86 0 0 0 5.454.045 3.85 3.85 0 0 0 .33-5.118l7.013-12.285 4.912-8.74 6.09-10.542a3.914 3.914 0 0 0 3.026-2.415c1.736-4.364 4.423-8.568 7.02-12.053l1.222 14.038c.142 1.65.83 3.033 1.85 4.125-3.154 5.71-11.641 21.328-14.705 26.634a4.974 4.974 0 0 0 1.826 6.796 4.98 4.98 0 0 0 6.805-1.826c2.855-4.943 10.3-19.942 13.567-25.58 2.618 4.345 7.079 12.34 12.738 25.109a4.979 4.979 0 0 0 6.576 2.536 4.967 4.967 0 0 0 2.538-6.56C66.302 67.77 61.388 59.405 58.666 55c1.076-1.349 1.724-3.025 1.554-4.993L59.062 36.71c3.354 2.674 7.73 4.927 15.202 5.699a3.913 3.913 0 0 0 4.298-3.484 3.916 3.916 0 0 0-3.497-4.292zM9.385 87.5a1.404 1.404 0 0 1-1.406-1.403 1.404 1.404 0 0 1 2.81 0c0 .775-.63 1.403-1.404 1.403z"/></g></g></svg>