<svg width="182" height="182" viewBox="0 0 182 182" xmlns="http://www.w3.org/2000/svg"><title>C32B87D3-DD2D-4124-8D66-950F3E4BB629</title><g fill="none" fill-rule="evenodd"><circle fill="#009688" cx="91" cy="91" r="91"/><g fill-rule="nonzero" fill="#FFF"><path d="M123.235 99.74c.95-3.493.484-7.146-1.314-10.288-3.71-6.485-12.005-8.742-18.49-5.032-6.485 3.71-8.743 12.006-5.032 18.491a13.462 13.462 0 0 0 8.203 6.346 13.473 13.473 0 0 0 10.288-1.314 13.462 13.462 0 0 0 6.345-8.203zm-3.947-8.781a10.449 10.449 0 0 1 .598 9.219c-2.242-1.268-4.735-2.369-7.441-3.274a51.37 51.37 0 0 0-2.736-.83 61.686 61.686 0 0 0 1.2-10.377c3.376.247 6.576 2.11 8.38 5.262zm-14.35-3.906a10.48 10.48 0 0 1 2.928-1.135 58.562 58.562 0 0 1-1.106 9.438 59.184 59.184 0 0 0-6.94-1.054 10.497 10.497 0 0 1 5.117-7.249zm-3.906 14.352a10.455 10.455 0 0 1-1.322-4.067 56.09 56.09 0 0 1 6.364.973 47.682 47.682 0 0 1-.876 2.94 43.496 43.496 0 0 1-1.291 3.39 10.49 10.49 0 0 1-2.875-3.236zm14.351 3.905a10.448 10.448 0 0 1-8.79.762 46.332 46.332 0 0 0 1.482-3.859c.345-1.035.661-2.097.946-3.182.834.23 1.655.48 2.46.75 2.504.837 4.802 1.849 6.863 3.01a10.507 10.507 0 0 1-2.96 2.519z"/><path d="M134.244 129.4l-11.486-20.073a18.086 18.086 0 0 0 4.965-8.366 18.082 18.082 0 0 0-1.765-13.819 18.092 18.092 0 0 0-5.543-5.995c-1.293-19.624-17.523-34.995-37.29-35.144-.193-.004-.39-.004-.582 0-9.999.075-19.386 4.025-26.434 11.121-7.055 7.103-10.94 16.53-10.94 26.541 0 10.013 3.885 19.44 10.94 26.543 7.048 7.097 16.435 11.046 26.433 11.122a13.922 13.922 0 0 0 .583 0c8.163-.062 15.877-2.676 22.36-7.567 1.53.407 3.113.617 4.706.617 1.643 0 3.296-.225 4.915-.682l11.489 20.078a4.377 4.377 0 0 0 2.667 2.064 4.38 4.38 0 0 0 3.345-.427 4.377 4.377 0 0 0 2.064-2.668 4.376 4.376 0 0 0-.427-3.345zM81.318 97.436c-5.438.129-10.766.948-15.581 2.394-1.35-4.518-2.119-9.525-2.245-14.648h17.826v12.254zM63.492 82.148c.126-5.121.894-10.127 2.245-14.645 4.815 1.445 10.143 2.264 15.58 2.393v12.252H63.493zm20.86-33.004c5.864.851 11.308 6.607 14.617 15.48-4.512 1.346-9.508 2.11-14.618 2.237V49.144zm-3.034 0v17.717c-5.11-.127-10.106-.892-14.617-2.237 3.307-8.873 8.75-14.629 14.617-15.48zM60.457 82.148h-12.22c.303-7.074 2.724-13.771 6.958-19.354 2.265 1.448 4.832 2.704 7.662 3.75-1.45 4.82-2.271 10.157-2.4 15.604zm0 3.034c.129 5.45.95 10.787 2.4 15.607-2.832 1.046-5.399 2.302-7.663 3.75-4.233-5.584-6.654-12.282-6.957-19.357h12.22zm20.86 15.29v17.717c-5.864-.85-11.308-6.607-14.616-15.481 4.51-1.345 9.506-2.11 14.617-2.237zm3.034 17.714V100.47c2.833.07 5.625.335 8.33.789a18.183 18.183 0 0 0 3.777 6.904c-3.271 5.798-7.593 9.367-12.107 10.023zm7.71-20.095a62.606 62.606 0 0 0-7.71-.656V85.182h11.308a18.311 18.311 0 0 0-3.598 12.909zm6.507-15.942H84.35V69.896c5.439-.129 10.767-.948 15.583-2.393 1.16 3.866 1.881 8.015 2.148 12.37a18.234 18.234 0 0 0-3.514 2.276zm6.475-3.436c-.327-4.266-1.075-8.345-2.23-12.17 2.833-1.046 5.402-2.304 7.667-3.753a34.419 34.419 0 0 1 6.727 16.619 18.241 18.241 0 0 0-12.164-.696zm3.487-18.28c-1.982 1.234-4.219 2.318-6.682 3.233-1.819-4.91-4.298-9.074-7.225-12.103-.243-.251-.49-.493-.737-.728a34.652 34.652 0 0 1 14.644 9.598zM71.79 50.826c-.251.238-.5.483-.745.737-2.926 3.029-5.405 7.193-7.223 12.102-2.46-.913-4.693-1.994-6.674-3.227.362-.399.733-.791 1.114-1.175 3.859-3.886 8.48-6.744 13.528-8.437zm-14.642 56.068c1.98-1.231 4.214-2.312 6.674-3.227 1.819 4.91 4.298 9.075 7.224 12.103.247.255.497.5.75.738-5.05-1.692-9.674-4.551-13.533-8.438a35.018 35.018 0 0 1-1.115-1.176zm36.727 9.616c1.777-1.677 3.395-3.745 4.836-6.179a18.172 18.172 0 0 0 3.353 2.144 34.245 34.245 0 0 1-8.189 4.035zm16.312-5.163c-5.266 0-10.393-2.743-13.19-7.632-4.154-7.26-1.628-16.545 5.632-20.698 2.37-1.356 4.954-2 7.507-2 5.266 0 10.393 2.743 13.19 7.632a15.068 15.068 0 0 1 1.47 11.515 15.069 15.069 0 0 1-7.102 9.183c-2.37 1.356-4.954 2-7.507 2zm21.558 20.602a1.364 1.364 0 0 1-.643.83c-.318.183-.688.23-1.042.134a1.363 1.363 0 0 1-.83-.643l-11.247-19.654c.41-.196.817-.407 1.218-.636.4-.229.785-.475 1.163-.73l11.248 19.657c.182.318.229.688.133 1.042z" stroke="#FFF"/></g></g></svg>