<svg width="182" height="182" viewBox="0 0 182 182" xmlns="http://www.w3.org/2000/svg"><title>99237638-4F5A-4DCA-B95C-A123FE9DF47B</title><g fill="none" fill-rule="evenodd"><circle fill="#FFF" cx="91" cy="91" r="91"/><g transform="translate(50 46)" fill-rule="nonzero" fill="#009688"><ellipse cx="34.937" cy="34.865" rx="9.316" ry="9.335"/><path d="M70.595 34.447C70.338 15.397 54.644 0 35.395 0 15.984 0 .198 15.654.198 34.741c-.037.495-1.08 12.351 7.362 24.39 3.608 5.176 5.97 10.13 7.16 15.141.807 3.395 1.41 9.213 1.41 13.82v1.835h40.786V71.574h14.65V55.057h10.44l-11.41-20.61zm-11.85 3.53l-5.627.94a18.564 18.564 0 0 1-2.47 5.959l3.32 4.659-4.391 4.4-4.649-3.327a18.48 18.48 0 0 1-5.946 2.475l-.939 5.64h-6.21l-.939-5.64a18.482 18.482 0 0 1-5.946-2.475l-4.649 3.327-4.392-4.4 3.321-4.66a18.562 18.562 0 0 1-2.47-5.958l-5.628-.94v-6.224l5.628-.94a18.565 18.565 0 0 1 2.47-5.96l-3.32-4.658 4.391-4.401 4.649 3.328a18.471 18.471 0 0 1 5.946-2.475l.939-5.64h6.21l.939 5.64a18.473 18.473 0 0 1 5.946 2.475l4.649-3.328 4.392 4.4-3.321 4.66a18.567 18.567 0 0 1 2.47 5.959l5.628.94v6.224z"/></g></g></svg>