<?xml version="1.0" encoding="UTF-8"?>
<svg width="146px" height="44px" viewBox="0 0 146 44" version="1.1" xmlns="http://www.w3.org/2000/svg" xmlns:xlink="http://www.w3.org/1999/xlink">
    <!-- Generator: Sketch 43.2 (39069) - http://www.bohemiancoding.com/sketch -->
    <title>tripirt</title>
    <desc>Created with Sketch.</desc>
    <defs></defs>
    <g id="Wordmark" stroke="none" stroke-width="1" fill="none" fill-rule="evenodd">
        <g id="tripirt" fill="#FFFFFF">
            <g id="Group">
                <path d="M32.88,4.56 L19.92,4.56 L19.92,34.56 L12.96,34.56 L12.96,4.56 L0,4.56 L0,0.96 L32.88,0.96 L32.88,4.56 Z M43.88,12.96 L38.12,12.96 C35.9439891,12.96 34.2800058,13.5439942 33.128,14.712 C31.9759942,15.8800058 31.4,17.6159885 31.4,19.92 L31.4,34.56 L24.68,34.56 L24.68,19.92 C24.68,16.6559837 25.7119897,14.120009 27.776,12.312 C29.8400103,10.503991 32.8079806,9.6 36.68,9.6 L43.88,9.6 L43.88,12.96 Z M54.68,34.56 L47.96,34.56 L47.96,10.08 L54.68,10.08 L54.68,34.56 Z M54.92,3.6 C54.92,4.5600048 54.5920033,5.3999964 53.936,6.12 C53.2799967,6.8400036 52.4080054,7.2 51.32,7.2 C50.2319946,7.2 49.3600033,6.8400036 48.704,6.12 C48.0479967,5.3999964 47.72,4.5600048 47.72,3.6 C47.72,2.6399952 48.0479967,1.8000036 48.704,1.08 C49.3600033,0.3599964 50.2319946,0 51.32,0 C52.3760053,0 53.2399966,0.3599964 53.912,1.08 C54.5840034,1.8000036 54.92,2.6399952 54.92,3.6 Z M65.36,12.96 L65.36,31.2 L71.36,31.2 C72.4480054,31.2 73.4479954,31.0320017 74.36,30.696 C75.2720046,30.3599983 76.0559967,29.8240037 76.712,29.088 C77.3680033,28.3519963 77.8799982,27.4080058 78.248,26.256 C78.6160018,25.1039942 78.8,23.7120082 78.8,22.08 C78.8,20.4479918 78.6160018,19.0560058 78.248,17.904 C77.8799982,16.7519942 77.3680033,15.8080037 76.712,15.072 C76.0559967,14.3359963 75.2720046,13.8000017 74.36,13.464 C73.4479954,13.1279983 72.4480054,12.96 71.36,12.96 L65.36,12.96 Z M71.36,9.6 C73.568011,9.6 75.575991,9.88799712 77.384,10.464 C79.192009,11.0400029 80.7359936,11.8719946 82.016,12.96 C83.2960064,14.0480054 84.2799966,15.3599923 84.968,16.896 C85.6560034,18.4320077 86,20.1599904 86,22.08 C86,24.0000096 85.6560034,25.7279923 84.968,27.264 C84.2799966,28.8000077 83.2960064,30.1119946 82.016,31.2 C80.7359936,32.2880054 79.192009,33.1199971 77.384,33.696 C75.575991,34.2720029 73.568011,34.56 71.36,34.56 L65.36,34.56 L65.36,43.2 L58.64,43.2 L58.64,9.6 L71.36,9.6 Z M96.48,34.56 L89.76,34.56 L89.76,10.08 L96.48,10.08 L96.48,34.56 Z M96.72,3.6 C96.72,4.5600048 96.3920033,5.3999964 95.736,6.12 C95.0799967,6.8400036 94.2080054,7.2 93.12,7.2 C92.0319946,7.2 91.1600033,6.8400036 90.504,6.12 C89.8479967,5.3999964 89.52,4.5600048 89.52,3.6 C89.52,2.6399952 89.8479967,1.8000036 90.504,1.08 C91.1600033,0.3599964 92.0319946,0 93.12,0 C94.1760053,0 95.0399966,0.3599964 95.712,1.08 C96.3840034,1.8000036 96.72,2.6399952 96.72,3.6 Z M120.4,12.96 L114.64,12.96 C112.463989,12.96 110.800006,13.5439942 109.648,14.712 C108.495994,15.8800058 107.92,17.6159885 107.92,19.92 L107.92,34.56 L101.2,34.56 L101.2,19.92 C101.2,16.6559837 102.23199,14.120009 104.296,12.312 C106.36001,10.503991 109.327981,9.6 113.2,9.6 L120.4,9.6 L120.4,12.96 Z M145.24,4.56 L132.28,4.56 L132.28,34.56 L125.32,34.56 L125.32,4.56 L112.36,4.56 L112.36,0.96 L145.24,0.96 L145.24,4.56 Z" id="TripirT"></path>
            </g>
        </g>
    </g>
</svg>